<?xml version="1.0" standalone="no"?><!DOCTYPE svg PUBLIC "-//W3C//DTD SVG 1.1//EN" "http://www.w3.org/Graphics/SVG/1.1/DTD/svg11.dtd"><svg class="icon" width="200px" height="200.00px" viewBox="0 0 1024 1024" version="1.1" xmlns="http://www.w3.org/2000/svg"><path fill="#333333" d="M128 682.666667a42.666667 42.666667 0 0 1-41.642667-51.925334l85.333334-469.333333A42.666667 42.666667 0 0 1 213.333333 128h341.333334c8.448 0 16.64 2.517333 23.68 7.168L695.594667 213.333333H896a42.666667 42.666667 0 0 1 42.666667 42.666667v384a42.666667 42.666667 0 0 1-42.666667 42.666667h-189.141333l-158.293334 235.306666A42.666667 42.666667 0 0 1 512 938.666667h-21.333333C431.786667 938.666667 384 853.333333 384 832L341.333333 682.666667H128z m413.781333-469.333334H247.552l-66.346667 384H384a42.666667 42.666667 0 0 1 42.666667 42.666667l42.666666 192c0 10.837333 8.106667 19.797333 18.645334 21.162667L640 628.181333V278.826667L541.781333 213.333333zM725.333333 597.333333h128V298.666667h-128v298.666666z" /></svg>