<?xml version="1.0" standalone="no"?><!DOCTYPE svg PUBLIC "-//W3C//DTD SVG 1.1//EN" "http://www.w3.org/Graphics/SVG/1.1/DTD/svg11.dtd"><svg t="1662213242554" class="icon" viewBox="0 0 1024 1024" version="1.1" xmlns="http://www.w3.org/2000/svg" p-id="4147" xmlns:xlink="http://www.w3.org/1999/xlink" width="200" height="200"><path d="M992.513333 609.886667a85.18 85.18 0 0 1-64.533333 29.506666h-0.666667l-275.18-2.22h-0.1a10.28 10.28 0 0 0-8.873333 4.826667 10.666667 10.666667 0 0 0-0.666667 10.373333c11.72 25.333333 22.48 55.333333 30.28 84.573334 6 22.546667 13.206667 55.633333 13.206667 85.2 0 64.666667-24.5 102.666667-45.053333 123.113333-26.713333 26.593333-58.666667 36.066667-79.66 36.066667-8.906667 0-22-1.666667-33.66-9.606667-10.1-6.86-22.14-20.44-22.14-46.186667 0-71.246667-5.446667-131.593333-73.966667-205.153333l-6-6.446667c-28.233333-30.226667-61.966667-66.353333-87.533333-108.513333A53.42 53.42 0 0 1 288 640H96a53.393333 53.393333 0 0 1-53.333333-53.333333V96a53.393333 53.393333 0 0 1 53.333333-53.333333h192a53.413333 53.413333 0 0 1 52.746667 45.44c0.553333-0.566667 1.1-1.14 1.66-1.7A148.353333 148.353333 0 0 1 448 42.666667h414.426667a85.333333 85.333333 0 0 1 84.34 72.36l65.546666 426.06a85.2 85.2 0 0 1-19.8 68.8zM298.666667 96a10.666667 10.666667 0 0 0-10.666667-10.666667H96a10.666667 10.666667 0 0 0-10.666667 10.666667v490.666667a10.666667 10.666667 0 0 0 10.666667 10.666666h192a10.666667 10.666667 0 0 0 10.666667-10.666666z m605.933333 25.513333a42.433333 42.433333 0 0 0-42.173333-36.18H448c-58.813333 0-106.666667 47.853333-106.666667 106.666667v285.54c0 83.82 63.933333 152.273333 115.333334 207.28l6 6.513333c35.853333 38.486667 59.446667 77.693333 72.126666 119.86 11.026667 36.666667 13.286667 72.24 13.286667 114.373334 0 7.686667 0.946667 13.126667 13.133333 13.126666 26.766667 0 82.046667-28.48 82.046667-116.513333 0-38.493333-16.626667-102.36-39.54-151.846667a53.333333 53.333333 0 0 1 48.3-75.8h0.44l275.153333 2.22a42.666667 42.666667 0 0 0 42.513334-49.153333zM213.333333 490.666667a21.333333 21.333333 0 1 0-21.333333 21.333333 21.333333 21.333333 0 0 0 21.333333-21.333333z" fill="#d81e06" p-id="4148"></path></svg>